<svg width="40" height="40" viewBox="0 0 40 40" fill="none" xmlns="http://www.w3.org/2000/svg">
<path d="M13.5294 3.40631C14.16 4.92944 15.3369 6.21442 16.484 7.37536C18.2071 9.11678 20.2033 10.6746 22.3883 11.8009C26.6936 14.0186 34.5196 15.3531 36.7592 9.61787C37.8169 6.90404 36.0838 4.32416 33.6754 3.10367C31.4806 1.99234 29.0076 1.82366 26.6588 2.5877C24.171 3.40135 22.0903 4.88975 20.7496 7.14714C19.2152 9.73198 19.1705 12.9023 20.9581 15.3879C22.8054 17.9578 25.7402 19.6794 28.8437 20.2202C32.1211 20.7907 35.3936 20.3045 38.6412 19.8233C39.6393 19.6744 40.1855 18.4192 39.9422 17.5361C39.6492 16.4694 38.6511 16.0874 37.653 16.2363C37.216 16.3008 36.784 16.3702 36.347 16.4397C36.1633 16.4694 35.9746 16.5091 35.7908 16.524C36.4265 16.4794 35.5624 16.5488 35.4184 16.5637C33.9833 16.7175 32.5234 16.8316 31.0833 16.7622C30.7506 16.7473 30.4179 16.7175 30.0852 16.6778C30.4477 16.7225 29.8518 16.6381 29.8369 16.6381C29.7177 16.6183 29.5985 16.5935 29.4794 16.5736C28.8239 16.4397 28.2032 16.2412 27.5775 16.0229C27.498 15.9932 27.2497 15.879 27.6073 16.0378C27.4732 15.9783 27.3441 15.9187 27.21 15.8542C27.0015 15.755 26.7979 15.6459 26.5992 15.5318C26.197 15.3035 25.8246 15.0455 25.4521 14.7776C25.9189 15.115 25.3727 14.7032 25.2684 14.6139C24.9655 14.351 24.6775 14.0731 24.4093 13.7755C24.315 13.6713 24.2206 13.5671 24.1313 13.453C24.3051 13.6762 23.9376 13.1652 23.9574 13.19C23.8581 13.0362 23.7638 12.8775 23.6744 12.7137C23.6347 12.6443 23.441 12.1779 23.5751 12.5302C23.4807 12.2771 23.4013 12.0241 23.3417 11.7612C23.3218 11.6619 23.292 11.1856 23.3169 11.652C23.3119 11.528 23.297 11.4039 23.297 11.2849C23.297 11.1658 23.297 11.0418 23.302 10.9227C23.3069 10.8185 23.3914 10.3621 23.302 10.8483C23.3566 10.5754 23.4112 10.3025 23.4956 10.0346C23.5254 9.95028 23.5552 9.86098 23.585 9.77664C23.7191 9.34004 23.4013 10.1289 23.6049 9.72206C23.7042 9.52361 23.7985 9.33012 23.9078 9.13663C24.017 8.94314 24.1263 8.77445 24.2455 8.60081C24.315 8.50158 24.3895 8.40235 24.459 8.30313C24.166 8.73476 24.4093 8.36762 24.4888 8.2684C24.7122 8.00049 24.9556 7.7425 25.2088 7.50436C25.3032 7.41505 25.4124 7.33567 25.5068 7.24637C25.7153 7.03799 25.0896 7.50436 25.328 7.38032C25.4124 7.33567 25.5664 7.2166 25.616 7.18683C26.2566 6.77504 26.9568 6.41783 27.4732 6.23426C27.7563 6.13503 28.0492 6.05069 28.3422 5.98123C28.4763 5.94651 28.6153 5.9217 28.7544 5.89193C28.8338 5.87705 28.9133 5.86216 28.9927 5.85224C28.7544 5.88201 28.7444 5.88201 28.958 5.86216C29.4098 5.8324 29.8468 5.83239 30.2987 5.85224C30.6711 5.87209 30.4129 5.75798 30.254 5.83736C30.2987 5.81255 30.5023 5.88201 30.5569 5.89193C30.7258 5.92666 30.8946 5.96635 31.0634 6.01596C31.3415 6.09534 31.5352 6.17969 31.6345 6.2293C31.9027 6.36822 32.1708 6.50217 32.429 6.6659C32.4787 6.69566 32.9107 7.01815 32.573 6.74528C32.7071 6.84946 32.8312 6.96357 32.9504 7.08761C33.0299 7.16699 33.1044 7.25629 33.1789 7.33567C32.861 7.00326 33.1242 7.25133 33.1838 7.36544C33.2186 7.42994 33.2583 7.51924 33.303 7.57381C33.5265 7.87149 33.2186 7.19676 33.2931 7.54901C33.3129 7.63335 33.3378 7.72762 33.3675 7.81196C33.4818 8.17909 33.3328 7.678 33.3576 7.68793C33.3824 7.69785 33.3626 7.97072 33.3675 8.00049C33.3824 8.43708 33.3477 7.88638 33.3924 7.92111C33.442 7.9608 33.2732 8.35274 33.2583 8.42716C33.1789 8.78437 33.4818 8.06498 33.2782 8.37259C33.2186 8.46189 33.1789 8.56112 33.1242 8.65042C33.0895 8.70995 33.0398 8.76949 33.01 8.82903C32.8362 9.16143 33.303 8.52143 33.0398 8.79926C32.8859 8.95802 32.7419 9.11678 32.583 9.26562C32.2205 9.60795 32.866 9.11678 32.4439 9.36981C32.29 9.46407 32.1261 9.53849 31.9771 9.63772C31.6643 9.84113 32.3893 9.51865 32.0318 9.61787C31.9324 9.64764 31.8331 9.68733 31.7338 9.7171C31.4458 9.80144 31.1479 9.84609 30.8499 9.89571C31.2323 9.83121 30.4477 9.9354 30.3285 9.94036C30.0504 9.96021 29.7723 9.96517 29.4943 9.96021C29.2162 9.95524 28.9431 9.94532 28.6699 9.92052C28.5061 9.90563 28.3422 9.89075 28.1833 9.8709C28.6104 9.92051 28.1287 9.85602 28.0343 9.84113C27.4533 9.73695 26.8773 9.59803 26.3162 9.41942C26.0629 9.34004 25.8097 9.25074 25.5614 9.15647C25.4124 9.1019 25.2634 9.04236 25.1194 8.98283C25.4223 9.10686 25.1045 8.9729 24.9854 8.91833C23.8383 8.39243 22.7557 7.7425 21.7328 7.00326C21.6335 6.92884 21.5342 6.85442 21.4348 6.78497C21.1319 6.56667 21.6633 6.9735 21.2908 6.67582C21.0525 6.48233 20.8141 6.28884 20.5758 6.08542C20.1686 5.73813 19.7763 5.37595 19.3939 4.99889C18.7583 4.37377 18.1723 3.70895 17.6063 3.02429C17.3778 2.75142 17.8744 3.40135 17.6807 3.12352C17.636 3.05902 17.5814 2.99453 17.5367 2.92507C17.4523 2.806 17.3679 2.68692 17.2884 2.56785C17.1544 2.35948 16.8018 1.6004 17.1345 2.40413C16.7521 1.47636 15.898 0.816511 14.8453 1.10427C13.9664 1.34737 13.1569 2.4587 13.5443 3.39143L13.5294 3.40631Z" fill="#D5C1A3"/>
<path d="M4.3578 25.7918C4.9239 25.5487 5.42544 25.1171 5.90215 24.745C6.57253 24.2191 7.20815 23.6485 7.81397 23.0432C9.52219 21.3316 11.0467 19.357 12.1441 17.2038C14.2694 13.0214 15.6152 5.41074 10.0386 3.23769C7.37698 2.20574 4.84941 3.93227 3.65763 6.27897C2.55027 8.45699 2.36654 10.9178 3.14119 13.2546C3.91585 15.5914 5.3013 17.556 7.42664 18.8509C9.94428 20.3889 13.0628 20.4286 15.496 18.6872C18.0583 16.8515 19.7665 13.9244 20.2979 10.8335C20.8292 7.74256 20.3972 4.50778 19.9503 1.35735C19.8112 0.360129 18.54 -0.185615 17.6611 0.0574888C16.5885 0.350206 16.221 1.34743 16.36 2.34465C16.4196 2.7614 16.4842 3.17815 16.5438 3.58994C16.5587 3.67924 16.5686 3.77351 16.5835 3.86281C16.6431 4.25476 16.5438 3.49072 16.5686 3.76359C16.5934 4.01661 16.6282 4.26468 16.653 4.51771C16.7871 5.89199 16.8914 7.29108 16.8218 8.67032C16.8119 8.84397 16.802 9.01265 16.7871 9.18134C16.7871 9.18134 16.7176 9.83127 16.7623 9.46909C16.7225 9.77173 16.6629 10.0793 16.5984 10.377C16.4693 10.9773 16.2806 11.5479 16.077 12.1284C16.0472 12.2077 15.933 12.4558 16.0919 12.1035C16.0323 12.2375 15.9727 12.3715 15.9081 12.5005C15.8088 12.7088 15.6996 12.9122 15.5854 13.1157C15.4761 13.3042 15.3619 13.4878 15.2427 13.6713C15.1533 13.8053 14.6866 14.4254 15.0441 13.9789C14.6866 14.4254 14.3092 14.8521 13.8871 15.2341C13.5742 15.5169 13.6338 15.4723 13.3011 15.6906C13.172 15.7749 13.0379 15.8543 12.9039 15.9238C12.8294 15.9634 12.2831 16.1867 12.6407 16.0627C12.3874 16.152 12.1292 16.2115 11.871 16.281C11.429 16.4 12.0944 16.3157 11.8412 16.2909C11.722 16.281 11.5929 16.3107 11.4737 16.3107C11.3397 16.3107 10.6147 16.2165 11.1112 16.3107C10.8381 16.2562 10.57 16.2016 10.3018 16.1123C10.1975 16.0776 10.0883 16.023 9.984 15.9982C9.72578 15.9386 10.3763 16.1966 9.9989 15.9982C9.80523 15.899 9.61157 15.8047 9.42287 15.6955C9.23417 15.5864 9.0703 15.4723 8.8965 15.3582C8.80215 15.2986 8.48434 15.0307 8.8965 15.3631C8.80712 15.2937 8.7227 15.2193 8.63332 15.1498C8.38503 14.9365 8.14667 14.7132 7.92818 14.4701C7.86363 14.4006 7.76928 14.227 7.67989 14.1823C7.96791 14.3312 7.95301 14.5743 7.82886 14.3659C7.73948 14.2121 7.6352 14.0682 7.54085 13.9144C7.15352 13.2744 6.94 12.8428 6.74633 12.2524C6.65198 11.9696 6.57253 11.6818 6.50797 11.3891C6.47321 11.2254 6.44839 11.0617 6.41859 10.9029C6.49804 11.3395 6.41859 10.8583 6.41859 10.7838C6.39376 10.4266 6.30438 9.80646 6.44342 9.46413C6.26962 9.89081 6.40369 9.70724 6.44342 9.52367C6.45832 9.44429 6.47321 9.35994 6.49308 9.28056C6.52784 9.12676 6.56756 8.97792 6.61226 8.82908C6.64702 8.71497 6.68674 8.60583 6.72647 8.49668C6.79102 8.3528 6.74137 8.46195 6.72647 8.49668C6.79102 8.3528 6.86054 8.20892 6.93503 8.06504C7.0691 7.80705 7.22304 7.56395 7.38195 7.32581C7.54085 7.08767 7.0989 7.61853 7.42167 7.2762C7.53589 7.15712 7.6501 7.04301 7.76431 6.92394C7.85866 6.82472 8.10695 6.70068 7.73948 6.92394C7.8239 6.86937 7.90832 6.80983 7.9977 6.76022C8.04736 6.73045 8.2013 6.61634 8.25592 6.62626C8.06225 6.58657 7.90832 6.76022 8.22612 6.66595C8.25592 6.65603 8.42475 6.61138 8.43469 6.6213C8.45455 6.64115 7.91825 6.6213 8.35523 6.64611C8.41482 6.64611 8.50421 6.65603 8.5638 6.64611C8.89154 6.61138 8.11688 6.52208 8.52904 6.64611C8.60849 6.67092 8.69787 6.69076 8.77732 6.71061C9.13982 6.80487 8.82201 6.64115 8.71773 6.67588C8.81208 6.64611 9.1001 6.88425 9.17458 6.9289C9.20934 6.94875 9.33845 7.02317 9.34838 7.04797C9.24907 6.82472 9.09017 6.81479 9.30369 7.02813C9.41791 7.1472 9.71088 7.33573 9.74565 7.49449C9.74565 7.49449 9.48743 7.09263 9.6513 7.37542C9.70592 7.46969 9.77047 7.55403 9.8251 7.64333C9.85986 7.70287 9.89462 7.76736 9.92938 7.8269C10.1032 8.11466 10.0734 7.87651 9.91945 7.7624C10.0039 7.82194 10.0535 8.16427 10.0784 8.25357C10.1032 8.34288 10.1181 8.43218 10.1379 8.52644C10.1528 8.60086 10.2472 9.30041 10.2025 8.88366C10.2621 9.43933 10.2869 9.99499 10.267 10.5556C10.2571 10.8285 10.2323 11.1014 10.2075 11.3742C10.1628 11.8853 10.272 11.1411 10.1975 11.4437C10.1528 11.6273 10.133 11.8158 10.0982 12.0043C9.98897 12.5302 9.84993 13.0512 9.68109 13.5572C9.59667 13.8102 9.50729 14.0633 9.40797 14.3113C9.38811 14.3659 9.17458 14.8472 9.35335 14.4552C9.2888 14.5991 9.22424 14.743 9.15472 14.8868C8.62339 16.0031 7.97784 17.0599 7.24787 18.0522C7.18828 18.1315 7.12869 18.2109 7.0691 18.2903C6.84565 18.5929 7.26277 18.0621 6.95489 18.4342C6.79102 18.6376 6.62715 18.836 6.45832 19.0345C6.11071 19.4413 5.74821 19.8382 5.37578 20.2203C4.76003 20.8503 4.10455 21.4308 3.42424 21.9914C3.20078 22.18 3.59804 21.8575 3.59308 21.8624C3.57322 21.922 3.38948 22.0162 3.33486 22.051C3.22065 22.1304 3.1114 22.2097 2.99222 22.2842C2.83332 22.3883 2.66945 22.4876 2.49068 22.567C1.56705 22.9589 1.35849 24.3233 1.8203 25.1121C2.38143 26.0696 3.43914 26.1738 4.36774 25.7819L4.3578 25.7918Z" fill="#D5C1A3"/>
<path d="M26.4704 36.0273C25.8397 34.5042 24.6628 33.2192 23.5158 32.0583C21.7926 30.3169 19.7964 28.759 17.6115 27.6328C13.3062 25.4151 5.48014 24.0805 3.24059 29.8158C2.18288 32.5296 3.91593 35.1095 6.32432 36.33C8.51918 37.4413 10.9921 37.61 13.3409 36.846C15.8288 36.0323 17.9094 34.5439 19.2502 32.2865C20.7846 29.7017 20.8293 26.5314 19.0416 24.0458C17.2539 21.5602 14.2596 19.7542 11.156 19.2135C7.8786 18.6429 4.60617 19.1291 1.35857 19.6104C0.360451 19.7592 -0.185782 21.0144 0.0575403 21.8975C0.35052 22.9642 1.34864 23.3462 2.34675 23.1974C2.78374 23.1329 3.21576 23.0634 3.65274 22.994C3.83648 22.9642 4.02518 22.9245 4.20891 22.9096C3.57329 22.9543 4.43733 22.8848 4.58134 22.8699C6.01644 22.7161 7.47637 22.602 8.91644 22.6715C9.24915 22.6864 9.58185 22.7161 9.91456 22.7558C9.55206 22.7112 10.1479 22.7955 10.1628 22.7955C10.282 22.8154 10.4012 22.8402 10.5204 22.86C11.1759 22.994 11.7966 23.1924 12.4223 23.4107C12.5017 23.4405 12.75 23.5546 12.3925 23.3958C12.5265 23.4554 12.6557 23.5149 12.7897 23.5794C12.9983 23.6786 13.2019 23.7878 13.4005 23.9019C13.8027 24.1301 14.1752 24.3881 14.5476 24.656C14.0808 24.3186 14.6271 24.7304 14.7313 24.8197C15.0342 25.0827 15.3223 25.3605 15.5904 25.6582C15.6848 25.7624 15.7791 25.8666 15.8685 25.9807C15.6947 25.7574 16.0622 26.2684 16.0423 26.2436C16.1416 26.3974 16.236 26.5562 16.3253 26.7199C16.3651 26.7894 16.5587 27.2557 16.4247 26.9035C16.519 27.1565 16.5985 27.4095 16.658 27.6725C16.6779 27.7717 16.7077 28.248 16.6829 27.7816C16.6878 27.9057 16.7027 28.0297 16.7027 28.1488C16.7027 28.2678 16.7027 28.3919 16.6978 28.511C16.6928 28.6151 16.6084 29.0716 16.6978 28.5854C16.6432 28.8582 16.5885 29.1311 16.5041 29.399C16.4743 29.4834 16.4445 29.5727 16.4147 29.657C16.2807 30.0936 16.5985 29.3048 16.3949 29.7116C16.2955 29.91 16.2012 30.1035 16.092 30.297C15.9827 30.4905 15.8735 30.6592 15.7543 30.8328C15.6848 30.9321 15.6103 31.0313 15.5408 31.1305C15.8337 30.6989 15.5904 31.066 15.511 31.1653C15.2875 31.4332 15.0442 31.6912 14.7909 31.9293C14.6966 32.0186 14.5873 32.098 14.493 32.1873C14.2844 32.3957 14.9101 31.9293 14.6717 32.0533C14.5873 32.098 14.4334 32.2171 14.3837 32.2468C13.7432 32.6586 13.043 33.0158 12.5265 33.1994C12.2435 33.2986 11.9505 33.383 11.6575 33.4524C11.5235 33.4871 11.3844 33.512 11.2454 33.5417C11.1659 33.5566 11.0865 33.5715 11.007 33.5814C11.2454 33.5516 11.2553 33.5516 11.0418 33.5715C10.5899 33.6013 10.1529 33.6013 9.70103 33.5814C9.3286 33.5616 9.58682 33.6757 9.74572 33.5963C9.70103 33.6211 9.49743 33.5516 9.44281 33.5417C9.27398 33.507 9.10514 33.4673 8.9363 33.4177C8.65822 33.3383 8.46456 33.254 8.36524 33.2044C8.09709 33.0654 7.82894 32.9315 7.57072 32.7678C7.52107 32.738 7.08904 32.4155 7.42672 32.6884C7.29264 32.5842 7.1685 32.4701 7.04932 32.346C6.96987 32.2667 6.89538 32.1774 6.82089 32.098C7.1387 32.4304 6.87552 32.1823 6.81593 32.0682C6.78117 32.0037 6.74144 31.9144 6.69675 31.8598C6.47329 31.5622 6.78117 32.2369 6.70668 31.8846C6.68682 31.8003 6.66199 31.706 6.6322 31.6217C6.51798 31.2546 6.66696 31.7557 6.64213 31.7457C6.6173 31.7358 6.63716 31.4629 6.6322 31.4332C6.6173 30.9966 6.65206 31.5473 6.60737 31.5125C6.55771 31.4729 6.72654 31.0809 6.74144 31.0065C6.82089 30.6493 6.51798 31.3687 6.72158 31.0611C6.78117 30.9718 6.82089 30.8725 6.87552 30.7832C6.91028 30.7237 6.95994 30.6642 6.98973 30.6046C7.16353 30.2722 6.69675 30.9122 6.95994 30.6344C7.11387 30.4756 7.25788 30.3169 7.41678 30.168C7.77928 29.8257 7.13374 30.3169 7.55583 30.0638C7.70976 29.9696 7.87363 29.8952 8.02261 29.7959C8.33545 29.5925 7.61045 29.915 7.96798 29.8158C8.0673 29.786 8.16661 29.7463 8.26593 29.7166C8.55394 29.6322 8.85189 29.5876 9.14983 29.5379C8.76747 29.6024 9.55206 29.4983 9.67124 29.4933C9.94932 29.4734 10.2274 29.4685 10.5055 29.4734C10.7836 29.4784 11.0567 29.4883 11.3298 29.5131C11.4937 29.528 11.6575 29.5429 11.8164 29.5628C11.3894 29.5131 11.8711 29.5776 11.9654 29.5925C12.5464 29.6967 13.1224 29.8356 13.6836 30.0142C13.9368 30.0936 14.1901 30.1829 14.4384 30.2772C14.5873 30.3318 14.7363 30.3913 14.8803 30.4508C14.5774 30.3268 14.8952 30.4607 15.0144 30.5153C16.1615 31.0412 17.244 31.6912 18.267 32.4304C18.3663 32.5048 18.4656 32.5792 18.5649 32.6487C18.8678 32.867 18.3365 32.4602 18.7089 32.7578C18.9473 32.9513 19.1856 33.1448 19.424 33.3482C19.8312 33.6955 20.2235 34.0577 20.6058 34.4348C21.2414 35.0599 21.8274 35.7247 22.3935 36.4094C22.6219 36.6822 22.1253 36.0323 22.319 36.3101C22.3637 36.3746 22.4183 36.4391 22.463 36.5086C22.5474 36.6277 22.6318 36.7467 22.7113 36.8658C22.8454 37.0742 23.1979 37.8333 22.8652 37.0295C23.2476 37.9573 24.1017 38.6171 25.1544 38.3294C26.0334 38.0863 26.8428 36.9749 26.4555 36.0422L26.4704 36.0273Z" fill="#D5C1A3"/>
<path d="M35.6371 13.642C35.071 13.8851 34.5695 14.3167 34.0928 14.6888C33.4224 15.2147 32.7868 15.7853 32.1809 16.3905C30.4727 18.1022 28.9482 20.0768 27.8508 22.23C25.7255 26.4124 24.3797 34.023 29.9563 36.1961C32.6179 37.228 35.1455 35.5015 36.3373 33.1548C37.4446 30.9768 37.6284 28.516 36.8537 26.1792C36.0791 23.8424 34.6936 21.8777 32.5683 20.5828C30.0506 19.0448 26.9321 19.0051 24.4989 20.7466C21.9366 22.5822 20.2284 25.5094 19.697 28.6003C19.1657 31.6912 19.5977 34.926 20.0446 38.0764C20.1837 39.0736 21.4549 39.6194 22.3339 39.3763C23.4065 39.0836 23.7739 38.0863 23.6349 37.0891C23.5753 36.6724 23.5107 36.2556 23.4511 35.8438C23.4363 35.7545 23.4263 35.6603 23.4114 35.571C23.3518 35.179 23.4511 35.9431 23.4263 35.6702C23.4015 35.4172 23.3667 35.1691 23.3419 34.9161C23.2078 33.5418 23.1035 32.1427 23.1731 30.7634C23.183 30.5898 23.1929 30.4211 23.2078 30.2524C23.2078 30.2524 23.2773 29.6025 23.2327 29.9647C23.2724 29.662 23.332 29.3544 23.3965 29.0568C23.5256 28.4564 23.7143 27.8859 23.9179 27.3054C23.9477 27.226 24.0619 26.978 23.903 27.3302C23.9626 27.1963 24.0222 27.0623 24.0868 26.9333C24.1861 26.7249 24.2953 26.5215 24.4095 26.3181C24.5188 26.1296 24.633 25.946 24.7522 25.7624C24.8416 25.6285 25.3083 25.0083 24.9508 25.4548C25.3083 25.0083 25.6857 24.5817 26.1078 24.1996C26.4207 23.9168 26.3611 23.9615 26.6938 23.7432C26.8229 23.6588 26.957 23.5795 27.091 23.51C27.1655 23.4703 27.7118 23.2471 27.3542 23.3711C27.6075 23.2818 27.8657 23.2223 28.1239 23.1528C28.5659 23.0337 27.9005 23.1181 28.1537 23.1429C28.2729 23.1528 28.402 23.123 28.5212 23.123C28.6553 23.123 29.3803 23.2173 28.8837 23.123C29.1568 23.1776 29.4249 23.2322 29.6931 23.3215C29.7974 23.3562 29.9066 23.4108 30.0109 23.4356C30.2691 23.4951 29.6186 23.2371 29.996 23.4356C30.1897 23.5348 30.3833 23.6291 30.572 23.7382C30.7607 23.8474 30.9246 23.9615 31.0984 24.0756C31.1928 24.1351 31.5106 24.403 31.0984 24.0706C31.1878 24.1401 31.2722 24.2145 31.3616 24.284C31.6099 24.4973 31.8482 24.7206 32.0667 24.9637C32.1313 25.0331 32.2256 25.2068 32.315 25.2514C32.027 25.1026 32.0419 24.8595 32.166 25.0679C32.2554 25.2217 32.3597 25.3655 32.4541 25.5193C32.8414 26.1593 33.0549 26.591 33.2486 27.1814C33.3429 27.4642 33.4224 27.7519 33.4869 28.0446C33.5217 28.2084 33.5465 28.3721 33.5763 28.5309C33.4969 28.0943 33.5763 28.5755 33.5763 28.6499C33.6011 29.0071 33.6905 29.6273 33.5515 29.9696C33.7253 29.543 33.5912 29.7265 33.5515 29.9101C33.5366 29.9895 33.5217 30.0738 33.5018 30.1532C33.4671 30.307 33.4273 30.4558 33.3827 30.6047C33.3479 30.7188 33.3082 30.8279 33.2684 30.9371C33.2535 30.9718 33.2039 31.081 33.2684 30.9371C33.2039 31.081 33.1344 31.2248 33.0599 31.3687C32.9258 31.6267 32.7719 31.8698 32.613 32.108C32.4541 32.3461 32.896 31.8152 32.5732 32.1576C32.459 32.2766 32.3448 32.3908 32.2306 32.5098C32.1363 32.6091 31.888 32.7331 32.2554 32.5098C32.171 32.5644 32.0866 32.6239 31.9972 32.6735C31.9476 32.7033 31.7936 32.8174 31.739 32.8075C31.9327 32.8472 32.0866 32.6736 31.7688 32.7678C31.739 32.7777 31.5702 32.8224 31.5602 32.8125C31.5404 32.7926 32.0767 32.8125 31.6397 32.7877C31.5801 32.7877 31.4907 32.7777 31.4311 32.7877C31.1034 32.8224 31.878 32.9117 31.4659 32.7877C31.3864 32.7629 31.297 32.743 31.2176 32.7232C30.8551 32.6289 31.1729 32.7926 31.2772 32.7579C31.1828 32.7877 30.8948 32.5495 30.8203 32.5049C30.7856 32.485 30.6565 32.4106 30.6465 32.3858C30.7458 32.6091 30.9047 32.619 30.6912 32.4056C30.577 32.2866 30.284 32.098 30.2493 31.9393C30.2493 31.9393 30.5075 32.3411 30.3436 32.0583C30.289 31.9641 30.2244 31.8797 30.1698 31.7904C30.1351 31.7309 30.1003 31.6664 30.0655 31.6069C29.8917 31.3191 29.9215 31.5573 30.0755 31.6714C29.991 31.6118 29.9414 31.2695 29.9166 31.1802C29.8917 31.0909 29.8768 31.0016 29.857 30.9073C29.8421 30.8329 29.7477 30.1334 29.7924 30.5501C29.7328 29.9944 29.708 29.4388 29.7279 28.8781C29.7378 28.6053 29.7626 28.3324 29.7874 28.0595C29.8321 27.5485 29.7229 28.2927 29.7974 27.9901C29.8421 27.8065 29.8619 27.618 29.8967 27.4294C30.0059 26.9035 30.145 26.3826 30.3138 25.8766C30.3982 25.6235 30.4876 25.3705 30.5869 25.1224C30.6068 25.0679 30.8203 24.5866 30.6416 24.9786C30.7061 24.8347 30.7707 24.6908 30.8402 24.5469C31.3715 23.4306 32.0171 22.3739 32.747 21.3816C32.8066 21.3022 32.8662 21.2228 32.9258 21.1435C33.1493 20.8408 32.7321 21.3717 33.04 20.9996C33.2039 20.7962 33.3678 20.5977 33.5366 20.3993C33.8842 19.9924 34.2467 19.5955 34.6191 19.2135C35.2349 18.5834 35.8904 18.003 36.5707 17.4423C36.7941 17.2538 36.3969 17.5763 36.4018 17.5713C36.4217 17.5118 36.6054 17.4175 36.6601 17.3828C36.7743 17.3034 36.8835 17.224 37.0027 17.1496C37.1616 17.0454 37.3255 16.9462 37.5042 16.8668C38.4279 16.4749 38.6364 15.1105 38.1746 14.3217C37.6135 13.3641 36.5558 13.2599 35.6272 13.6519L35.6371 13.642Z" fill="#D5C1A3"/>
</svg>
